<svg width="50" height="51" viewBox="0 0 50 51" fill="none" xmlns="http://www.w3.org/2000/svg">
<g clip-path="url(#clip0_423_281)">
<path d="M25 50.8182C38.8071 50.8182 50 39.6253 50 25.8182C50 12.0111 38.8071 0.818176 25 0.818176C11.1929 0.818176 0 12.0111 0 25.8182C0 39.6253 11.1929 50.8182 25 50.8182Z" fill="#D80027"/>
<path d="M39.7742 21.3348H28.4877L25 10.6008L21.5123 21.3348H10.2258L19.3567 27.9687L15.8689 38.703L25 32.0689L34.131 38.7031L30.6432 27.9688L39.7742 21.3348ZM21.9123 27.1384L23.0917 23.5086H26.9082L28.0877 27.1384V27.1385L25 29.3817L21.9124 27.1385L21.9123 27.1384ZM26.2019 21.3348H23.7981L25 17.6355L26.2019 21.3348ZM29.9368 25.7949L29.1939 23.5087H33.0835L29.9368 25.7949ZM20.8059 23.5087L20.0631 25.7949L16.9163 23.5087H20.8059ZM20.004 33.0116L21.2059 29.3125L23.1508 30.7254L20.004 33.0116ZM26.8492 30.7255L28.794 29.3126L29.996 33.0117L26.8492 30.7255Z" fill="#FFDA44"/>
</g>
<defs>
<clipPath id="clip0_423_281">
<rect width="50" height="50" fill="white" transform="translate(0 0.818176)"/>
</clipPath>
</defs>
</svg>
