<svg width="49" height="18" viewBox="0 0 49 18" fill="none" xmlns="http://www.w3.org/2000/svg">
<path d="M5.57952 17.9981C3.65321 17.9981 1.62943 17.6331 0.0432739 16.754V1.24411C1.60458 0.389878 3.62836 2.85548e-05 5.57952 2.85548e-05C7.53068 2.85548e-05 9.50668 0.365035 11.0661 1.24411V7.19505H7.13892V3.14558C6.67645 2.95066 6.11461 2.87804 5.55468 2.87804C4.99475 2.87804 4.48068 2.95066 3.99337 3.14558V14.8525C4.45584 15.0475 4.99284 15.1201 5.55468 15.1201C6.11652 15.1201 6.65161 15.0475 7.13892 14.8525V10.805H11.0661V16.7559C9.52962 17.6101 7.50584 17.9752 5.57952 18V17.9981Z" fill="#F7DD43"/>
<path d="M18.4313 17.9981C16.3578 17.9981 14.3589 17.5585 12.7727 16.6565V1.3167C14.334 0.439536 16.3349 0 18.4313 0C20.5277 0 22.4788 0.414693 24.0401 1.3167V16.6565C22.5037 17.5585 20.4799 17.9732 18.4313 17.9981ZM20.1149 3.19524C19.6524 3.00031 19.0906 2.90285 18.4083 2.90285C17.7261 2.90285 17.1891 3.00031 16.7247 3.19524V14.7799C17.1872 14.9997 17.749 15.0971 18.4083 15.0971C19.0676 15.0971 19.6276 14.9997 20.1149 14.7799V3.19524Z" fill="#F7DD43"/>
<path d="M30.893 11.4127H29.8439V17.7783H25.8689V0.219779H30.893C33.2837 0.219779 35.0877 0.707092 36.5019 1.70656V9.92589C35.1126 10.9024 33.2818 11.4127 30.893 11.4127ZM32.5518 3.24303C32.1868 2.97548 31.6975 2.85318 30.8682 2.85318H29.7942V8.77927H30.8682C31.6727 8.77927 32.16 8.65697 32.5518 8.41427V3.24303Z" fill="#F7DD43"/>
<path d="M44.8168 17.7783V11.4127H41.891V17.7783H37.9409V1.29185C39.3799 0.437625 41.4037 0 43.3548 0C45.306 0 47.3049 0.439537 48.7439 1.29185V17.7783H44.8168ZM44.8168 3.04809C44.4021 2.85316 43.8899 2.7557 43.3529 2.7557C42.8159 2.7557 42.3038 2.85316 41.8891 3.04809V8.63211H44.8148V3.04809H44.8168Z" fill="#F7DD43"/>
</svg>
